<svg xmlns="http://www.w3.org/2000/svg" width="55.613" height="86.331" viewBox="0 0 55.613 86.331">
  <g id="Group_9" data-name="Group 9" transform="translate(0)">
    <g id="Group_8" data-name="Group 8" transform="translate(0)">
      <path id="Path_28" data-name="Path 28" d="M174.355,32.165H170.21c.11-2.142.187-4.313.22-6.5h4.292a2.157,2.157,0,0,0,2.34-1.909,2.157,2.157,0,0,0-2.34-1.909h-4.3a14.686,14.686,0,0,0-1.409-5.381l3.868-1.823a1.733,1.733,0,0,0,.857-2.608,2.649,2.649,0,0,0-3.2-.7l-3.7,1.741a19.437,19.437,0,0,0-4.914-4.22l2.214-3.128a1.733,1.733,0,0,0-.857-2.608,2.652,2.652,0,0,0-3.2.7l-2.2,3.107a25,25,0,0,0-6.3-1.386V1.909a2.389,2.389,0,0,0-4.68,0V5.545a25.009,25.009,0,0,0-6.3,1.386l-2.2-3.107a2.652,2.652,0,0,0-3.2-.7,1.733,1.733,0,0,0-.857,2.608l2.214,3.128a19.437,19.437,0,0,0-4.914,4.22l-3.7-1.741a2.649,2.649,0,0,0-3.2.7,1.733,1.733,0,0,0,.857,2.608L129.5,16.47a14.686,14.686,0,0,0-1.409,5.381h-4.3a2.157,2.157,0,0,0-2.34,1.909,2.157,2.157,0,0,0,2.34,1.909h4.292c.033,2.182.11,4.353.22,6.5h-4.145a2.159,2.159,0,0,0-2.34,1.909,2.159,2.159,0,0,0,2.34,1.909h4.376c.161,2.207.363,4.39.6,6.523h-3.981a2.159,2.159,0,0,0-2.34,1.909,2.159,2.159,0,0,0,2.34,1.909h4.458c.281,2.033.6,4.033.957,5.976h-2.043c-2.031,0-3.686,1.348-3.686,3.005v5.646c0,1.659,1.655,3.007,3.686,3.007h.274l3.527,20.723a2.237,2.237,0,0,0,2.317,1.648h29.225a2.235,2.235,0,0,0,2.317-1.648l3.527-20.723h.274c2.031,0,3.686-1.348,3.686-3.007V55.307c0-1.657-1.655-3.005-3.686-3.005h-2.043c.356-1.944.676-3.943.957-5.976h4.458a2.159,2.159,0,0,0,2.34-1.909,2.159,2.159,0,0,0-2.34-1.909h-3.981c.239-2.133.44-4.315.6-6.523h4.376a2.159,2.159,0,0,0,2.34-1.909A2.159,2.159,0,0,0,174.355,32.165ZM134.732,16.318c2.9-4.361,8.429-7.059,14.523-7.059s11.626,2.7,14.523,7.059a12.177,12.177,0,0,1,1.994,6.419c0,3.714-.112,7.42-.335,11.023-.021.1-.536,6.965-.922,10.08-.07.181-.843,5.98-1.308,8.462h-4.966a147.31,147.31,0,0,0,2.579-20.864c.014-.256.028-.512.04-.77a2.117,2.117,0,0,0-2.249-1.98,2.2,2.2,0,0,0-2.427,1.835c-.012.246-.026.495-.04.743A143.431,143.431,0,0,1,153.5,52.3h-1.9V24.982a2.389,2.389,0,0,0-4.68,0V52.3h-1.9a130.5,130.5,0,0,1-2-12.984q-.105-1.005-.2-2.024a2.237,2.237,0,0,0-2.509-1.761,2.08,2.08,0,0,0-2.158,2.047c.063.684.131,1.38.206,2.068.47,4.464,1.116,8.707,1.919,12.654H135.3c-.466-2.482-1.238-8.281-1.308-8.462-.386-3.114-.9-9.978-.922-10.08-.222-3.6-.335-7.309-.335-11.023A11.974,11.974,0,0,1,134.732,16.318Zm34.259,39.8v4.021H161.31a1.949,1.949,0,1,0,0,3.819h3.674L161.83,82.512H136.682L133.527,63.96h17.025a1.949,1.949,0,1,0,0-3.819H129.52V56.12Z" transform="translate(-121.449)" fill="#fff"/>
    </g>
  </g>
</svg>
